<?xml version="1.0" encoding="UTF-8" standalone="no"?>
<svg width="18px" height="22px" viewBox="0 0 18 22" version="1.1" xmlns="http://www.w3.org/2000/svg" xmlns:xlink="http://www.w3.org/1999/xlink">
    <!-- Generator: Sketch 3.7 (28169) - http://www.bohemiancoding.com/sketch -->
    <title>apple</title>
    <desc>Created with Sketch.</desc>
    <defs></defs>
    <g id="Page-1" stroke="none" stroke-width="1" fill="none" fill-rule="evenodd">
        <g id="apple" transform="translate(-3.000000, 0.000000)">
            <path d="M17.9340111,11.6678265 C17.9060935,8.88632972 20.2020631,7.5522039 20.304523,7.48510629 C19.0144926,5.59835575 17.0043798,5.33946204 16.2886879,5.31030369 C14.5797508,5.13635575 12.9519417,6.31705423 12.0845881,6.31705423 C11.2194297,6.31705423 9.87967267,5.33559653 8.46236681,5.36041215 C6.59737766,5.38832972 4.8788961,6.44518872 3.91915206,8.11451627 C1.98272256,11.4735488 3.42403276,16.4520868 5.31083102,19.1787028 C6.2334948,20.5111106 7.33354252,22.010833 8.77661844,21.9559046 C10.1678202,21.9009761 10.6930523,21.0559089 12.3744536,21.0559089 C14.0559026,21.0559089 14.5284015,21.9559046 15.9998245,21.9276052 C17.4955859,21.9005466 18.443972,20.5694751 19.3592388,19.2314837 C20.417959,17.6833709 20.8541889,16.1845076 20.8799113,16.1082473 C20.8475555,16.0933579 17.9639807,14.9884902 17.9340111,11.6678265 L17.9340111,11.6678265 Z M15.1690263,3.50587419 C15.9343495,2.57667245 16.4529482,1.28530586 16.312215,-4.4408921e-16 C15.207395,0.0448590022 13.870215,0.734399132 13.0774037,1.66274187 C12.3669612,2.48647722 11.7455208,3.7978872 11.9119764,5.06004772 C13.1440241,5.15554013 14.4010306,4.43335792 15.1690263,3.50587419 L15.1690263,3.50587419 Z" id="Shape" fill="#4A4A4A"></path>
            <rect id="Rectangle-1" x="0" y="0" width="26" height="26"></rect>
        </g>
    </g>
</svg>