<?xml version="1.0" standalone="no"?>
<!DOCTYPE svg PUBLIC "-//W3C//DTD SVG 20010904//EN"
 "http://www.w3.org/TR/2001/REC-SVG-20010904/DTD/svg10.dtd">
<svg version="1.0" xmlns="http://www.w3.org/2000/svg"
 width="700.000000pt" height="700.000000pt" viewBox="0 0 700.000000 700.000000"
 preserveAspectRatio="xMidYMid meet">
<metadata>
Created by potrace 1.11, written by Peter Selinger 2001-2013
</metadata>
<g transform="translate(0.000000,700.000000) scale(0.100000,-0.100000)"
fill="#000000" stroke="none">
<path d="M5669 6980 c-20 -10 -50 -35 -68 -55 -66 -76 -61 140 -58 -2544 l2
-2436 29 -45 c104 -165 340 -150 418 27 20 44 20 73 20 2469 l0 2423 -24 48
c-27 57 -55 86 -108 113 -53 27 -160 27 -211 0z"/>
<path d="M2880 5951 c-61 -19 -120 -71 -148 -131 -14 -32 -16 -234 -17 -2327
-1 -2214 -1 -2293 17 -2341 44 -117 168 -177 290 -140 53 16 122 78 144 130
17 41 18 147 19 2328 1 1577 -2 2296 -9 2321 -37 125 -172 197 -296 160z"/>
<path d="M3803 5630 c-57 -25 -99 -65 -125 -118 l-23 -47 1 -1665 c0 -1329 2
-1673 13 -1702 15 -46 73 -109 121 -134 44 -22 132 -25 186 -7 48 16 105 69
130 121 18 36 19 99 19 1717 0 1620 -1 1681 -19 1715 -45 85 -118 132 -208
135 -36 2 -71 -4 -95 -15z"/>
<path d="M1967 5018 c-79 -17 -128 -55 -170 -133 l-21 -40 0 -1675 -1 -1675
25 -49 c55 -108 173 -157 289 -118 60 20 127 90 145 150 12 40 14 307 12 1707
-1 1620 -1 1661 -20 1699 -50 100 -157 156 -259 134z"/>
<path d="M4743 4690 c-57 -25 -99 -68 -124 -126 l-22 -49 0 -1640 c0 -902 3
-1660 7 -1685 9 -59 63 -133 118 -162 33 -17 60 -22 114 -23 61 0 77 4 119 30
31 19 61 49 80 79 l30 49 0 1691 c0 1581 -1 1693 -17 1722 -25 45 -76 94 -118
112 -53 23 -139 24 -187 2z"/>
<path d="M1147 3394 c-68 -24 -127 -87 -148 -157 -6 -19 -10 -630 -10 -1528
-1 -1209 2 -1504 12 -1540 17 -57 92 -133 145 -148 130 -36 248 19 299 142 13
32 15 213 15 1540 0 1669 4 1559 -67 1630 -66 67 -161 90 -246 61z"/>
</g>
</svg>
