<?xml version="1.0" encoding="UTF-8" standalone="no"?>
<svg width="20px" height="17px" viewBox="0 0 20 17" version="1.1" xmlns="http://www.w3.org/2000/svg" xmlns:xlink="http://www.w3.org/1999/xlink">
    <!-- Generator: Sketch 3.6.1 (26313) - http://www.bohemiancoding.com/sketch -->
    <title>twitter</title>
    <desc>Created with Sketch.</desc>
    <defs></defs>
    <g id="Page-1" stroke="none" stroke-width="1" fill="none" fill-rule="evenodd">
        <path d="M19.7490869,2.14266156 C19.0278804,2.46349735 18.2487078,2.68188137 17.4304417,2.77624484 C18.2662325,2.27746651 18.9052079,1.48750948 19.207171,0.545222849 C18.4253023,1.00355969 17.5625506,1.34057208 16.6458769,1.51581852 C15.9071458,0.735297835 14.8556671,0.25 13.6963445,0.25 C11.4720628,0.25 9.66298028,2.05638638 9.66298028,4.28606033 C9.66298028,4.60285197 9.69937762,4.91020726 9.76812815,5.20543011 C6.41148479,5.03557587 3.43768751,3.43139692 1.44661833,0.988731148 C1.09882155,1.58456905 0.900658269,2.27746651 0.900658269,3.01889376 C0.900658269,4.41816918 1.61242843,5.65433061 2.69626026,6.37823321 C2.03571598,6.35666442 1.41156905,6.17602578 0.86830508,5.87271463 L0.86830508,5.92663662 C0.86830508,7.88130845 2.25949221,9.51244839 4.10362398,9.88990227 C3.76661159,9.98426573 3.41072651,10.0341436 3.04136094,10.0341436 C2.78118738,10.0341436 2.52910211,10.0071826 2.28240905,9.96269694 C2.79466787,11.5668759 4.28695872,12.7329387 6.05290361,12.76664 C4.67115284,13.8450796 2.93082088,14.4921434 1.03815932,14.4921434 C0.714627433,14.4921434 0.391095543,14.4746188 0.077,14.4382214 C1.86451369,15.5840635 3.98634367,16.25 6.26454739,16.25 C13.6882562,16.25 17.7499295,10.1028941 17.7499295,4.76461791 C17.7499295,4.58937147 17.7445373,4.41816918 17.736449,4.24427079 C18.525058,3.67808998 19.2098671,2.96362373 19.750435,2.154794 L19.7490869,2.14266156 Z" id="twitter" fill="#FFFFFF"></path>
    </g>
</svg>